<?xml version="1.0" encoding="UTF-8" standalone="no"?>
<!DOCTYPE svg PUBLIC "-//W3C//DTD SVG 1.1//EN" "http://www.w3.org/Graphics/SVG/1.1/DTD/svg11.dtd">
<svg xmlns="http://www.w3.org/2000/svg" version="1.1" viewBox="0 0 419 349" width="419.0pt" height="349.0pt">
<path d="M 9.46 0.00 L 21.62 0.00 L 22.50 0.36 C 29.40 3.31 35.81 7.06 41.00 12.56 C 37.73 17.21 35.99 22.34 33.37 27.32 C 30.83 32.20 28.41 37.07 25.07 41.48 C 24.44 40.59 23.76 39.74 23.05 38.91 C 23.36 40.25 23.68 41.58 24.06 42.90 C 18.01 42.34 11.98 41.64 5.94 41.11 C 3.36 33.66 2.02 25.94 0.00 18.34 L 0.00 7.00 C 2.74 3.40 5.22 1.62 9.46 0.00 Z" fill="#f59723" />
<path d="M 41.00 12.56 C 44.81 16.38 47.91 20.64 50.84 25.15 C 57.35 35.27 63.04 46.20 66.96 57.59 C 63.69 58.60 60.77 59.93 57.92 61.83 C 51.90 65.85 45.35 68.78 39.55 73.13 C 34.30 62.84 28.77 52.44 25.07 41.48 C 28.41 37.07 30.83 32.20 33.37 27.32 C 35.99 22.34 37.73 17.21 41.00 12.56 Z" fill="#e56c28" />
<path d="M 5.94 41.11 C 11.98 41.64 18.01 42.34 24.06 42.90 C 27.96 52.26 31.83 61.62 36.19 70.77 C 32.39 73.17 28.49 75.32 24.58 77.53 C 22.61 78.54 21.61 80.21 20.49 82.04 C 15.01 68.65 9.95 55.02 5.94 41.11 Z" fill="#e56c28" />
<path d="M 66.96 57.59 C 68.31 62.65 67.86 67.98 68.62 73.20 C 66.84 78.12 63.41 82.39 61.04 87.06 C 58.98 91.22 55.50 93.56 51.77 96.06 C 47.36 88.57 43.39 80.93 39.55 73.13 C 45.35 68.78 51.90 65.85 57.92 61.83 C 60.77 59.93 63.69 58.60 66.96 57.59 Z" fill="#da4a2e" />
<path d="M 72.14 60.87 C 76.44 64.87 79.60 70.42 82.51 75.50 C 85.87 81.49 87.13 88.05 86.92 94.88 C 86.43 95.89 85.33 97.40 86.17 98.47 C 87.53 99.07 87.83 96.84 87.93 95.96 C 88.49 92.62 89.02 89.28 89.55 85.93 C 91.43 88.81 92.99 91.83 93.87 95.17 C 95.54 100.80 95.01 106.19 95.27 112.02 C 96.48 109.07 97.49 106.06 98.50 103.04 C 101.94 106.29 104.29 110.20 106.93 114.07 C 114.30 125.10 120.49 136.38 123.61 149.39 C 125.32 156.22 125.22 163.04 125.02 170.04 C 124.81 176.67 123.06 182.80 120.83 189.00 C 119.20 191.28 117.82 193.70 116.54 196.20 C 93.31 164.00 71.12 130.76 51.77 96.06 C 55.50 93.56 58.98 91.22 61.04 87.06 C 63.41 82.39 66.84 78.12 68.62 73.20 C 70.09 69.16 70.90 64.98 72.14 60.87 Z" fill="#bf2142" />
<path d="M 36.19 70.77 C 40.25 79.47 44.86 87.87 49.18 96.43 C 45.59 97.45 41.77 99.33 38.05 98.95 C 34.59 98.73 31.14 98.38 27.67 98.31 C 25.02 92.98 22.71 87.55 20.49 82.04 C 21.61 80.21 22.61 78.54 24.58 77.53 C 28.49 75.32 32.39 73.17 36.19 70.77 Z" fill="#da4a2e" />
<path d="M 86.92 94.88 L 87.93 95.96 C 87.83 96.84 87.53 99.07 86.17 98.47 C 85.33 97.40 86.43 95.89 86.92 94.88 Z" fill="#f59723" />
<path d="M 49.18 96.43 C 68.36 131.45 90.06 165.14 112.92 197.85 C 105.36 196.39 97.48 195.56 89.80 195.07 C 86.54 192.01 83.47 188.86 80.63 185.41 C 65.71 168.56 53.24 149.14 42.70 129.31 C 37.51 119.08 32.12 108.88 27.67 98.31 C 31.14 98.38 34.59 98.73 38.05 98.95 C 41.77 99.33 45.59 97.45 49.18 96.43 Z" fill="#bf2142" />
<path d="M 326.04 116.95 C 345.20 121.94 363.23 130.78 378.31 143.70 C 383.03 147.42 387.18 151.37 390.90 156.10 C 404.10 171.07 413.22 189.48 416.94 209.10 C 417.75 213.67 418.01 218.29 419.00 222.83 L 419.00 233.28 C 417.73 238.87 417.51 244.58 416.16 250.16 C 414.21 258.46 411.08 266.69 407.29 274.32 C 401.07 285.49 393.25 296.15 383.65 304.66 C 377.67 309.63 371.39 316.22 370.17 324.22 C 369.37 329.45 371.50 333.77 373.63 338.35 C 375.30 341.75 375.89 345.35 376.76 349.00 L 374.43 349.00 C 364.68 343.62 355.92 338.03 345.05 334.93 C 340.57 333.70 335.65 333.73 331.06 334.14 C 322.46 335.16 313.93 338.80 305.41 340.35 C 293.97 342.10 282.48 342.76 270.99 341.08 C 240.89 338.33 212.47 324.17 191.73 302.26 C 185.02 296.06 179.76 288.75 174.68 281.21 C 173.35 278.98 172.08 276.73 170.68 274.55 L 170.40 274.10 L 170.04 273.53 C 168.60 269.80 167.09 266.10 165.58 262.40 C 157.60 241.71 156.67 218.54 163.35 197.36 C 168.90 179.19 179.31 163.09 192.73 149.73 C 202.43 140.93 212.47 133.05 224.32 127.31 C 239.31 119.34 256.16 114.72 272.99 112.92 C 290.57 110.55 308.91 112.63 326.04 116.95 Z" fill="#2dc100" />
<path d="M 132.25 159.04 C 134.07 162.72 135.72 166.38 136.51 170.45 C 137.81 177.08 136.90 183.46 136.51 190.11 C 140.23 186.28 141.08 182.27 141.59 177.10 C 143.73 182.28 144.72 187.43 144.13 193.05 C 143.35 202.33 138.78 209.17 134.11 216.86 C 137.79 217.07 141.43 217.49 145.00 218.44 C 141.40 219.15 137.77 219.65 134.16 220.27 C 127.89 212.58 122.28 204.29 116.54 196.20 C 117.82 193.70 119.20 191.28 120.83 189.00 C 125.86 185.11 128.76 179.61 130.68 173.66 C 132.19 168.78 131.96 164.09 132.25 159.04 Z" fill="#832778" />
<path d="M 226.31 179.33 C 230.79 178.11 235.81 178.62 239.64 181.35 C 243.12 183.75 245.14 188.14 245.79 192.21 C 246.36 200.38 239.04 207.79 230.99 208.01 C 224.51 207.75 218.66 203.51 216.72 197.26 C 214.05 189.89 219.10 181.61 226.31 179.33 Z" fill="#ffffff" />
<path d="M 320.27 179.31 C 324.72 178.55 329.87 178.23 333.34 181.67 C 338.39 185.94 340.58 192.69 337.95 198.95 C 335.90 204.41 330.52 207.41 324.94 207.95 C 319.12 207.74 313.28 204.54 311.11 198.90 C 307.57 191.29 312.43 181.65 320.27 179.31 Z" fill="#ffffff" />
<path d="M 89.80 195.07 C 97.48 195.56 105.36 196.39 112.92 197.85 C 126.79 217.53 141.40 236.66 155.88 255.90 C 155.13 256.32 154.37 256.74 153.62 257.16 C 144.79 246.83 137.33 235.38 128.76 224.86 C 124.41 228.21 123.65 233.45 120.93 238.32 C 120.81 234.19 121.28 230.13 121.94 226.06 C 119.04 227.15 116.13 228.23 113.17 229.17 C 115.70 226.51 118.13 223.81 120.30 220.86 C 118.14 218.11 114.80 217.37 111.60 216.38 C 105.05 214.51 98.50 214.25 91.77 213.66 C 96.04 211.74 100.54 210.82 105.05 209.66 C 100.36 204.36 94.36 200.57 89.80 195.07 Z" fill="#832778" />
<path d="M 155.88 255.90 C 160.43 261.90 164.91 268.08 170.04 273.53 L 170.40 274.10 L 170.68 274.55 C 172.08 276.73 173.35 278.98 174.68 281.21 C 173.21 281.00 172.32 280.91 171.40 279.64 C 165.45 272.18 159.57 264.62 153.62 257.16 C 154.37 256.74 155.13 256.32 155.88 255.90 Z" fill="#312768" />
</svg>
