<svg xmlns="http://www.w3.org/2000/svg" viewBox="0 0 828.11 272.87"><defs><style>.cls-1{fill:#fff;}.cls-2{fill:#006eff;}.cls-3{font-size:115px;fill:#414042;stroke:#414042;stroke-miterlimit:10;stroke-width:2px;font-family:TencentSansW3, TencentSans;letter-spacing:-0.02em;}.cls-4{letter-spacing:-0.01em;}.cls-5{letter-spacing:-0.02em;}</style></defs><g id="Layer_2" data-name="Layer 2"><g id="Layer_1-2" data-name="Layer 1"><path class="cls-1" d="M93.69,71.39H61l-21.6,37.23,18.53,19.5a5.31,5.31,0,1,1-7.69,7.31L29.06,113.2l-.13-.14a4.77,4.77,0,0,1-.6-.76l-.06-.1a4.1,4.1,0,0,1-.23-.4,4.84,4.84,0,0,1-.21-.47l-.15-.43s0-.1,0-.16-.06-.24-.08-.36a5.28,5.28,0,0,1,0-2c0-.18.08-.35.13-.51a3.68,3.68,0,0,1,.18-.5,4.94,4.94,0,0,1,.3-.61l25-43s0,0,0,0a5.5,5.5,0,0,1,5.06-3.34H93.66a5.5,5.5,0,1,1,0,11Z"/><g id="Cube_Fills" data-name="Cube Fills"><path class="cls-2" d="M233.92,64.49,124.56,1.36a10.11,10.11,0,0,0-10.12,0L5.08,64.49A10.12,10.12,0,0,0,0,73.27V199.58a10.11,10.11,0,0,0,5.08,8.79L114.44,271.5a10.06,10.06,0,0,0,10.12,0l109.36-63.13a10.11,10.11,0,0,0,5.08-8.79V73.27A10.21,10.21,0,0,0,233.92,64.49Zm-205,48.57a4.77,4.77,0,0,1-.6-.76l-.06-.1a4.1,4.1,0,0,1-.23-.4,4.84,4.84,0,0,1-.21-.47l-.15-.43s0-.1,0-.16-.06-.24-.08-.36a5.28,5.28,0,0,1,0-2c0-.18.08-.35.13-.51a3.68,3.68,0,0,1,.18-.5,4.94,4.94,0,0,1,.3-.61l25-43s0,0,0,0a5.5,5.5,0,0,1,5.06-3.34H93.66a5.5,5.5,0,1,1,0,11H61l-21.6,37.23,18.53,19.5a5.31,5.31,0,1,1-7.69,7.31L29.06,113.2Zm67.7,61.74-14.9,25.66a5.27,5.27,0,0,1-4.6,2.65H34.88a5.5,5.5,0,1,1,0-11H74.31l13.13-22.65a5.31,5.31,0,0,1,9.19,5.34Zm6.89-57.13a19.94,19.94,0,0,1,5.06,8.72h51.34a5.5,5.5,0,1,1,0,11H108.51a20,20,0,0,1-5,8.51l-.09.09,26.76,46.12h70a5.45,5.45,0,0,1,5.24,3.69,5.52,5.52,0,0,1-5.21,7.31H127.54a0,0,0,0,1-.05,0h-.13a5.28,5.28,0,0,1-4.6-2.65l-28.55-49.2a19.73,19.73,0,0,1-5,.64,20.13,20.13,0,0,1,0-40.25,19.3,19.3,0,0,1,5,.65l28.55-49.2a5.23,5.23,0,0,1,3.58-2.55h.06a1.26,1.26,0,0,1,.28,0,4.83,4.83,0,0,1,.94-.1h72.53a5.5,5.5,0,1,1,0,11h-70l-26.8,46.18Z"/></g><path class="cls-1" d="M96.63,174.8l-14.9,25.66a5.27,5.27,0,0,1-4.6,2.65H34.88a5.5,5.5,0,1,1,0-11H74.31l13.13-22.65a5.31,5.31,0,0,1,9.19,5.34Z"/><path class="cls-1" d="M200.15,192.11h-70L103.43,146l.09-.09a20,20,0,0,0,5-8.51h51.37a5.5,5.5,0,1,0,0-11H108.58a19.94,19.94,0,0,0-5.06-8.72l-.09-.1,26.8-46.18h70a5.5,5.5,0,1,0,0-11H127.62a4.83,4.83,0,0,0-.94.1,1.26,1.26,0,0,0-.28,0h-.06a5.23,5.23,0,0,0-3.58,2.55L94.21,112.3a19.3,19.3,0,0,0-5-.65,20.13,20.13,0,0,0,0,40.25,19.73,19.73,0,0,0,5-.64l28.55,49.2a5.28,5.28,0,0,0,4.6,2.65h.13a0,0,0,0,0,.05,0h72.64a5.52,5.52,0,0,0,5.21-7.31A5.45,5.45,0,0,0,200.15,192.11ZM98.87,133.88c-.05.2-.1.41-.17.61s-.2.57-.32.86-.17.36-.26.54-.08.18-.13.28-.17.29-.27.44a10,10,0,0,1-8.53,4.78H89a10,10,0,0,1,0-20h.23a9.94,9.94,0,0,1,7,2.82c.08.09.16.15.23.23a9.48,9.48,0,0,1,1.34,1.74c.1.14.18.3.27.44s.19.37.27.56l.24.55a11.24,11.24,0,0,1,.38,1.16,10.25,10.25,0,0,1,.31,2.5A9.65,9.65,0,0,1,98.87,133.88Z"/><path class="cls-2" d="M99.19,131.39a9.65,9.65,0,0,1-.32,2.49c-.05.2-.1.41-.17.61s-.2.57-.32.86-.17.36-.26.54l-.14.28-.26.44a10,10,0,0,1-8.53,4.78H89a10,10,0,0,1,0-20h.23a9.94,9.94,0,0,1,7,2.82c.08.09.16.15.23.23a9.48,9.48,0,0,1,1.34,1.74c.09.14.18.3.26.44s.19.37.28.56l.24.55a11.24,11.24,0,0,1,.38,1.16A10.25,10.25,0,0,1,99.19,131.39Z"/><text class="cls-3" transform="translate(265.45 168.82)">S<tspan class="cls-4" x="64.52" y="0">upe</tspan><tspan class="cls-5" x="262.2" y="0">r</tspan><tspan class="cls-4" x="305.44" y="0">E</tspan><tspan class="cls-5" x="365.93" y="0">d</tspan><tspan class="cls-4" x="432.51" y="0">ge</tspan></text></g></g></svg>